<svg width="27" height="27" viewBox="0 0 27 27" fill="none" xmlns="http://www.w3.org/2000/svg">
<path d="M23.0488 3.95501C22.0142 2.92043 20.8568 2.07986 19.6088 1.45664C19.3371 1.3209 19.0072 1.43127 18.8717 1.70276C18.7361 1.97434 18.8463 2.30436 19.1178 2.43992C20.2597 3.0102 21.3208 3.78143 22.2716 4.73219C27.1079 9.56853 27.1079 17.4378 22.2716 22.2741C17.4353 27.1105 9.566 27.1105 4.72967 22.2741C-0.106672 17.4378 -0.106672 9.56853 4.72967 4.73219C7.07241 2.38936 10.1874 1.09915 13.5005 1.09915C13.804 1.09915 14.0501 0.85303 14.0501 0.549574C14.0501 0.246117 13.804 0 13.5005 0C9.89373 0 6.50287 1.40453 3.95239 3.95501C-1.31244 9.21983 -1.31244 17.7865 3.95239 23.0513C6.58484 25.6838 10.0427 27 13.5006 27C16.9585 27 20.4163 25.6838 23.0488 23.0513C28.3136 17.7865 28.3136 9.21983 23.0488 3.95501Z" fill="currentColor"/>
<path d="M13.5 4.76224C13.1965 4.76224 12.9504 5.00835 12.9504 5.31181V21.6945C12.9504 21.9981 13.1965 22.2441 13.5 22.2441C13.8035 22.2441 14.0496 21.9981 14.0496 21.6945V5.31181C14.0496 5.00826 13.8035 4.76224 13.5 4.76224Z" fill="currentColor"/>
<path d="M15.6983 14.0527H21.6914C21.9948 14.0527 22.241 13.8066 22.241 13.5031C22.241 13.1996 21.9948 12.9535 21.6914 12.9535H15.6983C15.3948 12.9535 15.1487 13.1996 15.1487 13.5031C15.1487 13.8066 15.3947 14.0527 15.6983 14.0527Z" fill="currentColor"/>
<path d="M5.30861 12.9535C5.00515 12.9535 4.75903 13.1996 4.75903 13.5031C4.75903 13.8066 5.00515 14.0527 5.30861 14.0527H11.1185C11.422 14.0527 11.6681 13.8066 11.6681 13.5031C11.6681 13.1996 11.422 12.9535 11.1185 12.9535H5.30861Z" fill="currentColor"/>
</svg>
