<!--<svg version="1.1" id="Capa_1" xmlns="http://www.w3.org/2000/svg" xmlns:xlink="http://www.w3.org/1999/xlink" x="0px" y="0px" viewBox="0 0 496 496" style="enable-background:new 0 0 496 496" xml:space="preserve"> <path d="M248,0C111.033,0,0,111.033,0,248c0.154,136.903,111.097,247.846,248,248c136.967,0,248-111.033,248-248S384.967,0,248,0 z M248,480C119.87,480,16,376.13,16,248C16.146,119.93,119.93,16.146,248,16c128.13,0,232,103.87,232,232S376.13,480,248,480z"/> <path d="M400,240H256V96c0-4.418-3.582-8-8-8s-8,3.582-8,8v144H96c-4.418,0-8,3.582-8,8s3.582,8,8,8h144v144c0,4.418,3.582,8,8,8 s8-3.582,8-8V256h144c4.418,0,8-3.582,8-8S404.418,240,400,240z"/> </svg>-->
<svg id="Capa_1" enable-background="new 0 0 551.13 551.13" height="512" viewBox="0 0 551.13 551.13" width="512" xmlns="http://www.w3.org/2000/svg">
  <path d="m275.565 0c-151.944 0-275.565 123.621-275.565 275.565s123.621 275.565 275.565 275.565 275.565-123.621 275.565-275.565-123.621-275.565-275.565-275.565zm0 516.685c-132.955 0-241.119-108.164-241.119-241.119s108.164-241.12 241.119-241.12 241.12 108.164 241.12 241.119-108.165 241.12-241.12 241.12z"/>
  <path d="m292.788 137.783h-34.446v120.56h-120.56v34.446h120.56v120.56h34.446v-120.56h120.56v-34.446h-120.56z"/>
</svg>
