<svg width="40" height="15" viewBox="0 0 40 15" fill="none" xmlns="http://www.w3.org/2000/svg">
<path d="M10.5829 0C7.87701 0 5.49193 1.34986 4.10516 3.38911H0.814948C0.364961 3.38911 0 3.74228 0 4.17773C0 4.61318 0.364961 4.96635 0.814948 4.96635H3.28872C2.99412 5.75826 2.83249 6.61116 2.83249 7.49994C2.83249 11.6355 6.30932 15 10.5829 15C14.8565 15 18.3333 11.6355 18.3333 7.49994C18.3333 3.3644 14.8565 0 10.5829 0ZM10.5829 13.4228C7.20808 13.4228 4.46238 10.7658 4.46238 7.49994C4.46238 4.23412 7.20808 1.57711 10.5829 1.57711C13.9577 1.57711 16.7034 4.23412 16.7034 7.49994C16.7034 10.7658 13.9577 13.4228 10.5829 13.4228Z" fill="black"/>
<path d="M39.2005 3.38905H35.5966C35.2108 2.80889 34.7436 2.27882 34.203 1.8188C32.8247 0.645871 31.0621 0 29.2397 0C26.5176 0 24.1262 1.41963 22.7831 3.5469C22.2001 2.81152 21.2932 2.33744 20.2756 2.33744C19.7424 2.33744 19.2145 2.47032 18.7491 2.72149C18.3618 2.9306 18.2197 3.40981 18.4316 3.79203C18.6435 4.17398 19.1292 4.31409 19.5167 4.10524C19.7508 3.9788 20.006 3.91479 20.2756 3.91479C21.149 3.91479 21.8597 4.61586 21.8597 5.47755C21.8597 5.53117 21.8653 5.58361 21.8755 5.63435C21.7201 6.23106 21.6373 6.85617 21.6373 7.50007C21.6373 11.6355 25.0478 15 29.2397 15C32.3871 15 35.2467 13.0485 36.3561 10.144C36.5118 9.73643 36.3031 9.28153 35.8898 9.12815C35.4768 8.97437 35.0156 9.18033 34.86 9.58804C33.984 11.8817 31.7254 13.4229 29.2397 13.4229C25.9294 13.4229 23.2361 10.766 23.2361 7.5002C23.2361 4.23444 25.9294 1.57748 29.2397 1.57748C32.2145 1.57748 34.7086 3.67768 35.1701 6.57135C35.2387 7.00153 35.6476 7.29529 36.0841 7.22773C36.5201 7.16004 36.8181 6.75641 36.7496 6.32622C36.6754 5.86068 36.5552 5.40591 36.3952 4.96653H39.2006C39.642 4.96653 40 4.61336 40 4.17792C40 3.74248 39.642 3.38905 39.2005 3.38905Z" fill="currentColor"/>
</svg>
