<svg width="26" height="28" viewBox="0 0 26 28" fill="none" xmlns="http://www.w3.org/2000/svg">
<path d="M19.7 20.9C17.5 20.4 16 18.4 16 16.2C17.8 15.2 19 13.2 19 11C19 9.9 19.9 9 21 9V6.7C21 3.9 18.9 1.3 16.1 1C14.1 0.800003 12.3 1.6 11.2 3.1C10.4 2.9 9.6 3 8.6 3.7C7.6 4.5 7 5.7 7 7V8V9.5V10.8C7 13 8.2 15.1 10 16.2C10 18.5 8.4 20.4 6.2 21C3.6 21.7 1.7 23.8 1.1 26.4C1.1 26.7 1.3 27 1.7 27H24.4C24.8 27 25 26.7 24.9 26.3C24.3 23.7 22.3 21.6 19.7 20.9Z" stroke="currentColor" stroke-miterlimit="10" stroke-linejoin="round"/>
</svg>
