<!--<svg width="26" height="28" viewBox="0 0 26 28" fill="none" xmlns="http://www.w3.org/2000/svg"> <path d="M19.7 20.9C17.5 20.4 16 18.4 16 16.2C17.8 15.2 19 13.2 19 11C19 9.9 19.9 9 21 9V6.7C21 3.9 18.9 1.3 16.1 1C14.1 0.800003 12.3 1.6 11.2 3.1C10.4 2.9 9.6 3 8.6 3.7C7.6 4.5 7 5.7 7 7V8V9.5V10.8C7 13 8.2 15.1 10 16.2C10 18.5 8.4 20.4 6.2 21C3.6 21.7 1.7 23.8 1.1 26.4C1.1 26.7 1.3 27 1.7 27H24.4C24.8 27 25 26.7 24.9 26.3C24.3 23.7 22.3 21.6 19.7 20.9Z" stroke="currentColor" stroke-linejoin="round"/> </svg>-->
<!--<svg id="Layer_1" enable-background="new 0 0 480.063 480.063" height="512" viewBox="0 0 480.063 480.063" width="512" xmlns="http://www.w3.org/2000/svg"> <path d="m402.032 424.806v47.257c0 4.418-3.582 8-8 8s-8-3.582-8-8v-47.257c0-36.795-29.775-66.572-66.573-66.571-17.411 0-33.208-8.87-42.259-23.728-2.298-3.773-1.103-8.696 2.671-10.994 3.773-2.299 8.695-1.103 10.994 2.671 6.122 10.051 16.811 16.051 28.594 16.051 45.637-.002 82.573 36.93 82.573 82.571zm-139.606-80.193c.941 4.317-1.796 8.579-6.113 9.52-21.054 4.587-42.467-.005-59.516-11.642-16.878 18.087-39.176 15.744-36.191 15.744-36.795-.001-66.573 29.773-66.573 66.571v47.257c0 4.418-3.582 8-8 8s-8-3.582-8-8v-47.257c0-45.636 36.929-82.571 82.571-82.571 18.462 0 33.429-14.875 33.429-33.342v-2.107c-34.919-16.697-59.429-51.784-60.923-92.643-14.37-3.455-25.077-16.317-25.077-31.62v-41.473c-.437-20.3 2.577-71.143 39.648-106.877 45.775-44.126 119.183-41.323 173.161-15.338 5.261 2.535 6.06 9.643 1.691 13.324 27.345 6.67 50.925 23.48 66.074 47.538.782 1.239 2.214 3.184 1.84 6.287-.232 1.931-.807 3.565-2.295 5.075-9.75 9.888-15.119 22.991-15.119 36.896v54.57c0 4.418-3.582 8-8 8s-8-3.582-8-8v-54.57c0-16.037 5.479-31.259 15.542-43.487-15.338-21.936-39.268-36.044-66.332-38.942l-14.061-1.506c-8.222-.88-9.835-12.207-2.194-15.352l6.395-2.633c-83.286-29.035-172.351 3.226-172.351 114.928v41.56c0 6.348 3.656 11.865 9 14.636v-51.863c0-30.878 25.122-56 56-56h102c30.878 0 56 25.12 56 55.997v65.503c0 69.574-67.988 122.42-137.17 102.053-.45 5.708-1.871 11.216-4.186 16.336 13.458 9.242 30.453 12.97 47.23 9.314 4.317-.94 8.579 1.797 9.52 6.114zm-22.394-43.425c50.178 0 91-40.822 91-91v-64.895c0-22.054-17.944-39.997-40-39.997h-102c-22.056 0-40 17.944-40 40v64.892c0 50.178 40.822 91 91 91zm81 137.875h-24c-4.418 0-8 3.582-8 8s3.582 8 8 8h24c4.418 0 8-3.582 8-8s-3.582-8-8-8z"/> </svg>-->
<svg version="1.1" id="Capa_1" xmlns="http://www.w3.org/2000/svg" xmlns:xlink="http://www.w3.org/1999/xlink" x="0px" y="0px" viewBox="0 0 482.9 482.9" style="enable-background:new 0 0 482.9 482.9" xml:space="preserve">
  <g>
    <g>
      <path d="M239.7,260.2c0.5,0,1,0,1.6,0c0.2,0,0.4,0,0.6,0c0.3,0,0.7,0,1,0c29.3-0.5,53-10.8,70.5-30.5 c38.5-43.4,32.1-117.8,31.4-124.9c-2.5-53.3-27.7-78.8-48.5-90.7C280.8,5.2,262.7,0.4,242.5,0h-0.7c-0.1,0-0.3,0-0.4,0h-0.6 c-11.1,0-32.9,1.8-53.8,13.7c-21,11.9-46.6,37.4-49.1,91.1c-0.7,7.1-7.1,81.5,31.4,124.9C186.7,249.4,210.4,259.7,239.7,260.2z M164.6,107.3c0-0.3,0.1-0.6,0.1-0.8c3.3-71.7,54.2-79.4,76-79.4h0.4c0.2,0,0.5,0,0.8,0c27,0.6,72.9,11.6,76,79.4 c0,0.3,0,0.6,0.1,0.8c0.1,0.7,7.1,68.7-24.7,104.5c-12.6,14.2-29.4,21.2-51.5,21.4c-0.2,0-0.3,0-0.5,0l0,0c-0.2,0-0.3,0-0.5,0 c-22-0.2-38.9-7.2-51.4-21.4C157.7,176.2,164.5,107.9,164.6,107.3z"/>
      <path d="M446.8,383.6c0-0.1,0-0.2,0-0.3c0-0.8-0.1-1.6-0.1-2.5c-0.6-19.8-1.9-66.1-45.3-80.9c-0.3-0.1-0.7-0.2-1-0.3 c-45.1-11.5-82.6-37.5-83-37.8c-6.1-4.3-14.5-2.8-18.8,3.3c-4.3,6.1-2.8,14.5,3.3,18.8c1.7,1.2,41.5,28.9,91.3,41.7 c23.3,8.3,25.9,33.2,26.6,56c0,0.9,0,1.7,0.1,2.5c0.1,9-0.5,22.9-2.1,30.9c-16.2,9.2-79.7,41-176.3,41 c-96.2,0-160.1-31.9-176.4-41.1c-1.6-8-2.3-21.9-2.1-30.9c0-0.8,0.1-1.6,0.1-2.5c0.7-22.8,3.3-47.7,26.6-56 c49.8-12.8,89.6-40.6,91.3-41.7c6.1-4.3,7.6-12.7,3.3-18.8c-4.3-6.1-12.7-7.6-18.8-3.3c-0.4,0.3-37.7,26.3-83,37.8 c-0.4,0.1-0.7,0.2-1,0.3c-43.4,14.9-44.7,61.2-45.3,80.9c0,0.9,0,1.7-0.1,2.5c0,0.1,0,0.2,0,0.3c-0.1,5.2-0.2,31.9,5.1,45.3 c1,2.6,2.8,4.8,5.2,6.3c3,2,74.9,47.8,195.2,47.8s192.2-45.9,195.2-47.8c2.3-1.5,4.2-3.7,5.2-6.3 C447,415.5,446.9,388.8,446.8,383.6z"/>
    </g>
  </g>
</svg>
