<!--<svg width="29" height="29" viewBox="0 0 29 29" fill="none" xmlns="http://www.w3.org/2000/svg"> <path fill-rule="evenodd" clip-rule="evenodd" d="M14.5 28C21.9558 28 28 21.9558 28 14.5C28 7.04416 21.9558 1 14.5 1C7.04416 1 1 7.04416 1 14.5C1 21.9558 7.04416 28 14.5 28Z" stroke="currentColor" stroke-linecap="round" stroke-linejoin="round"/> <path d="M8 14.1131L12.2678 18L20 11" stroke="currentColor" stroke-linecap="round" stroke-linejoin="round"/> </svg>-->
<!--<svg id="Layer_1" enable-background="new 0 0 512 512" height="512" viewBox="0 0 512 512" width="512" xmlns="http://www.w3.org/2000/svg"> <g> <path d="m446 40h-46v-24c0-8.836-7.163-16-16-16s-16 7.164-16 16v24h-224v-24c0-8.836-7.163-16-16-16s-16 7.164-16 16v24h-46c-36.393 0-66 29.607-66 66v340c0 36.393 29.607 66 66 66h380c36.393 0 66-29.607 66-66v-340c0-36.393-29.607-66-66-66zm-380 32h46v16c0 8.836 7.163 16 16 16s16-7.164 16-16v-16h224v16c0 8.836 7.163 16 16 16s16-7.164 16-16v-16h46c18.748 0 34 15.252 34 34v38h-448v-38c0-18.748 15.252-34 34-34zm380 408h-380c-18.748 0-34-15.252-34-34v-270h448v270c0 18.748-15.252 34-34 34z"/> </g> </svg>-->
<svg version="1.1" id="Capa_1" xmlns="http://www.w3.org/2000/svg" xmlns:xlink="http://www.w3.org/1999/xlink" x="0px" y="0px" viewBox="0 0 266.533 266.533" style="enable-background:new 0 0 266.533 266.533" xml:space="preserve">
  <g>
    <path d="M133.267,0C59.783,0,0,59.783,0,133.267c0,4.142,3.357,7.5,7.5,7.5s7.5-3.358,7.5-7.5C15,68.054,68.054,15,133.267,15
		s118.267,53.054,118.267,118.267s-53.054,118.267-118.267,118.267c-24.152,0-47.378-7.23-67.165-20.909
		c-19.342-13.37-34.136-31.939-42.784-53.7c-1.53-3.849-5.893-5.73-9.739-4.2c-3.85,1.53-5.73,5.89-4.2,9.74
		c9.744,24.52,26.409,45.44,48.193,60.499c22.307,15.42,48.481,23.57,75.695,23.57c73.483,0,133.267-59.783,133.267-133.267
		S206.75,0,133.267,0z"/>
    <path d="M133.267,54.529c-43.416,0-78.737,35.322-78.737,78.738s35.321,78.738,78.737,78.738s78.737-35.322,78.737-78.738
		c0-28.5-15.469-54.852-40.369-68.771c-3.617-2.023-8.185-0.729-10.206,2.887c-2.021,3.616-0.729,8.185,2.888,10.206
		c20.162,11.271,32.688,32.605,32.688,55.678c0,35.145-28.593,63.738-63.737,63.738s-63.737-28.593-63.737-63.738
		s28.593-63.738,63.737-63.738c4.143,0,7.5-3.358,7.5-7.5S137.409,54.529,133.267,54.529z"/>
    <path d="M106.531,133.267c0,14.742,11.993,26.735,26.735,26.735s26.735-11.994,26.735-26.735s-11.993-26.735-26.735-26.735
		S106.531,118.525,106.531,133.267z M145.002,133.267c0,6.471-5.265,11.735-11.735,11.735s-11.735-5.265-11.735-11.735
		s5.265-11.735,11.735-11.735S145.002,126.796,145.002,133.267z"/>
  </g>
</svg>
