<svg width="512" height="140" viewBox="0 0 512 140" fill="none" xmlns="http://www.w3.org/2000/svg">
<mask id="mask0" mask-type="alpha" maskUnits="userSpaceOnUse" x="0" y="0" width="512" height="140">
<rect width="512" height="140" fill="#C4C4C4"/>
</mask>
<g mask="url(#mask0)">
<path d="M872.633 75.392C882.265 75.392 890.441 73.152 897.161 68.672C904.105 63.968 910.937 58.48 917.657 52.208C924.601 45.712 932.553 39.552 941.513 33.728C950.473 27.904 961.785 23.648 975.449 20.96C971.865 17.6 968.169 13.904 964.361 9.87199C960.553 5.83999 956.185 1.13599 951.257 -4.24001L863.225 -101.008L909.593 -140.32L1095.74 67.664L909.593 275.648L863.225 236.336L951.257 139.568C958.873 131.056 966.601 123.104 974.441 115.712C982.505 108.096 991.129 101.376 1000.31 95.552V80.768C988.217 82.56 978.249 86.256 970.409 91.856C962.569 97.456 954.729 103.504 946.889 110C939.049 116.496 929.417 122.096 917.993 126.8C906.793 131.504 891.673 133.856 872.633 133.856C852.697 133.856 836.457 130.272 823.913 123.104C811.593 115.936 801.065 107.648 792.329 98.24C783.593 88.832 775.193 80.544 767.129 73.376C759.065 66.208 749.433 62.624 738.233 62.624C727.033 62.624 717.401 65.984 709.337 72.704C701.273 79.424 692.873 87.264 684.137 96.224C675.401 105.184 664.873 113.024 652.553 119.744C640.009 126.464 623.769 129.824 603.833 129.824C583.897 129.824 567.769 126.8 555.449 120.752C542.905 114.48 532.265 107.424 523.529 99.584C514.793 91.52 506.393 84.464 498.329 78.416C490.265 72.144 480.633 69.008 469.433 69.008C458.233 69.008 448.601 72.256 440.537 78.752C432.249 85.248 423.849 92.864 415.337 101.6C406.601 110.112 396.073 117.616 383.753 124.112C371.209 130.608 354.969 133.856 335.033 133.856C315.097 133.856 298.969 130.272 286.649 123.104C274.105 115.936 263.465 107.648 254.729 98.24C245.993 88.832 237.593 80.544 229.529 73.376C221.465 66.208 211.833 62.624 200.633 62.624C189.433 62.624 179.801 65.984 171.737 72.704C163.673 79.424 155.273 87.264 146.537 96.224C137.801 105.184 127.273 113.024 114.953 119.744C102.409 126.464 86.1687 129.824 66.2327 129.824C49.8807 129.824 33.7527 125.456 17.8487 116.72C1.9447 107.984 -12.0553 97.232 -24.1513 84.464C-36.2473 71.696 -44.7593 59.152 -49.6873 46.832L3.06475 21.296C10.4568 36.304 19.8647 49.072 31.2887 59.6C42.4887 70.128 54.1367 75.392 66.2327 75.392C77.4327 75.392 87.0647 72.032 95.1287 65.312C103.193 58.592 111.593 50.752 120.329 41.792C129.065 32.832 139.705 24.992 152.249 18.272C164.569 11.552 180.697 8.19199 200.633 8.19199C220.569 8.19199 236.809 11.552 249.353 18.272C261.673 24.992 272.201 32.832 280.937 41.792C289.673 50.752 298.073 58.592 306.137 65.312C314.201 72.032 323.833 75.392 335.033 75.392C346.233 75.392 355.865 72.032 363.929 65.312C371.993 58.592 380.393 50.752 389.129 41.792C397.865 32.832 408.505 24.992 421.049 18.272C433.369 11.552 449.497 8.19199 469.433 8.19199C489.369 8.19199 505.609 11.552 518.153 18.272C530.697 24.992 541.337 32.832 550.073 41.792C558.585 50.752 566.873 58.592 574.937 65.312C583.001 72.032 592.633 75.392 603.833 75.392C615.033 75.392 624.665 72.032 632.729 65.312C640.793 58.592 649.193 50.752 657.929 41.792C666.665 32.832 677.305 24.992 689.849 18.272C702.169 11.552 718.297 8.19199 738.233 8.19199C758.169 8.19199 774.297 11.552 786.617 18.272C799.161 24.992 809.801 32.832 818.537 41.792C827.273 50.752 835.673 58.592 843.737 65.312C851.801 72.032 861.433 75.392 872.633 75.392Z" fill="#FC5200"/>
</g>
</svg>
