<svg width="512" height="512" viewBox="0 0 512 512" fill="none" xmlns="http://www.w3.org/2000/svg">
<g clip-path="url(#clip0)">
<path d="M869.32 263.729C878.952 263.729 887.128 261.488 893.848 257.008C900.792 252.304 907.624 246.815 914.344 240.543C921.288 234.046 929.24 227.886 938.2 222.061C947.16 216.237 958.472 211.981 972.136 209.292C968.552 205.932 964.856 202.236 961.048 198.204C957.24 194.171 952.872 189.467 947.944 184.09L859.912 87.315L906.28 48L1092.42 256L906.28 464L859.912 424.685L947.944 327.91C955.56 319.397 963.288 311.444 971.128 304.052C979.192 296.435 987.816 289.715 997 283.89V269.105C984.904 270.897 974.936 274.593 967.096 280.194C959.256 285.794 951.416 291.843 943.576 298.339C935.736 304.836 926.104 310.436 914.68 315.141C903.48 319.845 888.36 322.197 869.32 322.197C849.384 322.197 833.144 318.613 820.6 311.444C808.28 304.276 797.752 295.987 789.016 286.578C780.28 277.17 771.88 268.881 763.816 261.712C755.752 254.544 746.12 250.96 734.92 250.96C723.72 250.96 714.088 254.32 706.024 261.04C697.96 267.761 689.56 275.602 680.824 284.562C672.088 293.523 661.56 301.363 649.24 308.084C636.696 314.805 620.456 318.165 600.52 318.165C580.584 318.165 564.456 315.141 552.136 309.092C539.592 302.82 528.952 295.763 520.216 287.922C511.48 279.858 503.08 272.801 495.016 266.753C486.952 260.48 477.32 257.344 466.12 257.344C454.92 257.344 445.288 260.592 437.224 267.089C428.936 273.585 420.536 281.202 412.024 289.939C403.288 298.451 392.76 305.956 380.44 312.452C367.896 318.949 351.656 322.197 331.72 322.197C311.784 322.197 295.656 318.613 283.336 311.444C270.792 304.276 260.152 295.987 251.416 286.578C242.68 277.17 234.28 268.881 226.216 261.712C218.152 254.544 208.52 250.96 197.32 250.96C186.12 250.96 176.488 254.32 168.424 261.04C160.36 267.761 151.96 275.602 143.224 284.562C134.488 293.523 123.96 301.363 111.64 308.084C99.096 314.805 82.856 318.165 62.92 318.165C46.568 318.165 30.44 313.796 14.536 305.06C-1.36803 296.323 -15.368 285.57 -27.464 272.801C-39.56 260.032 -48.072 247.487 -53 235.166L-0.247978 209.628C7.14402 224.638 16.552 237.407 27.976 247.935C39.176 258.464 50.824 263.729 62.92 263.729C74.12 263.729 83.752 260.368 91.816 253.648C99.88 246.927 108.28 239.087 117.016 230.126C125.752 221.165 136.392 213.325 148.936 206.604C161.256 199.884 177.384 196.523 197.32 196.523C217.256 196.523 233.496 199.884 246.04 206.604C258.36 213.325 268.888 221.165 277.624 230.126C286.36 239.087 294.76 246.927 302.824 253.648C310.888 260.368 320.52 263.729 331.72 263.729C342.92 263.729 352.552 260.368 360.616 253.648C368.68 246.927 377.08 239.087 385.816 230.126C394.552 221.165 405.192 213.325 417.736 206.604C430.056 199.884 446.184 196.523 466.12 196.523C486.056 196.523 502.296 199.884 514.84 206.604C527.384 213.325 538.024 221.165 546.76 230.126C555.272 239.087 563.56 246.927 571.624 253.648C579.688 260.368 589.32 263.729 600.52 263.729C611.72 263.729 621.352 260.368 629.416 253.648C637.48 246.927 645.88 239.087 654.616 230.126C663.352 221.165 673.992 213.325 686.536 206.604C698.856 199.884 714.984 196.523 734.92 196.523C754.856 196.523 770.984 199.884 783.304 206.604C795.848 213.325 806.488 221.165 815.224 230.126C823.96 239.087 832.36 246.927 840.424 253.648C848.488 260.368 858.12 263.729 869.32 263.729Z" fill="#FC5200"/>
</g>
<defs>
<clipPath id="clip0">
<rect width="512" height="512" fill="white"/>
</clipPath>
</defs>
</svg>
